<svg data-noselect="" viewBox="0 0 400 300" width="400" height="300" preserveAspectRatio="none" version="1.1" xmlns="http://www.w3.org/2000/svg" style="background: rgba(255, 255, 255, 0);"><defs></defs> <g id="shapge_x1O1iDfHSE" transform="translate(189.5842855699033,164.93833459394352) rotate(0,0,0) scale(0.6167199333609888,0.6167199333609888)" filter="" style="cursor: move; opacity: 1;"><g><svg xmlns="http://www.w3.org/2000/svg" version="1.1" xmlns:xlink="http://www.w3.org/1999/xlink" overflow="hidden" style="top:0; left: 0" width="16" height="38" viewBox="0 0 16.542 38.279999999999994" preserveAspectRatio="none" data-parent="shapge_x1O1iDfHSE"><rect fill="rgba(0,0,0,0)" width="16" height="38"></rect> <rect opacity="0"></rect><g transform="translate(0 0)" data-width="11.542"><path fill="#D5423E" d="" transform="translate(0 25.52)"></path></g></svg></g> <!----></g><g id="shape_1PI0gfqfIq" transform="translate(194.5180371947917,48.10416944055616) rotate(0,36.72222222222222,36.72222222222222) scale(0.6167199333609888,0.6167199333609888)" filter="" style="cursor: move; opacity: 1;"><g><rect fill="rgba(0,0,0,0)" width="93.44444444444444" height="93.44444444444444" x="-10" y="-10"></rect><svg version="1.1" id="图层_1" xmlns="http://www.w3.org/2000/svg" xmlns:xlink="http://www.w3.org/1999/xlink" x="-73.44444444444444" y="-73.44444444444444" style="enable-background:new 0 0 283.46 283.46;" xml:space="preserve" viewBox="41.472999572753906 38.29899978637695 200.69000244140625 200.6890106201172" width="73.44444444444444" height="73.44444444444444" preserveAspectRatio="none" data-parent="shape_1PI0gfqfIq">
<polygon style="" points="116.097,52.002 167.539,52.002 167.539,138.644 181.242,138.644 181.242,38.299 
	102.394,38.299 102.394,91.896 116.097,91.896 " fill="#a9d7ee"></polygon>
<polygon style="" points="167.539,225.285 116.097,225.285 116.097,138.644 102.394,138.644 102.394,238.988 
	181.242,238.988 181.242,185.391 167.539,185.391 " fill="#30b8ea"></polygon>
<polygon style="" points="188.566,99.219 188.566,112.922 228.46,112.922 228.46,164.365 141.818,164.365 
	141.818,178.068 242.163,178.068 242.163,99.219 " fill="#1784e8"></polygon>
<polygon style="" points="55.176,112.922 141.818,112.922 141.818,99.219 41.473,99.219 41.473,178.068 
	95.071,178.068 95.071,164.365 55.176,164.365 " fill="#42a8f2"></polygon>
</svg></g> <!----></g><g id="shape_Guveu1idt1" transform="translate(143.93128572383654,66.92858700950411) rotate(0,82.0255,188.9605) scale(0.6167199333609888,0.6167199333609888)" filter="" style="cursor: move; opacity: 1;"><g><svg xmlns="http://www.w3.org/2000/svg" version="1.1" xmlns:xlink="http://www.w3.org/1999/xlink" overflow="hidden" style="top:0; left: 0" width="164.051" height="377.921" viewBox="0 0 164.051 377.921" preserveAspectRatio="none" data-parent="shape_Guveu1idt1"><rect fill="rgba(0,0,0,0)" width="164.051" height="377.921"></rect> <rect opacity="0"></rect><g transform="translate(0 0)" data-width="109.051"><path fill="rgb(100, 176, 212)" d="M108.55 0.50L108.55 0.50L108.55 0.50Q92.18-0.33 87.59-0.33L87.59-0.33L87.59-0.33Q83.00-0.33 66.30 0.50L66.30 0.50L66.30 0.50Q65.63-0.17 65.63-2.00L65.63-2.00L65.63-2.00Q65.63-3.84 66.30-3.84L66.30-3.84L66.30-3.84Q69.81-3.84 71.64-5.01L71.64-5.01L71.64-5.01Q73.48-6.18 73.31-7.18L73.31-7.18L73.31-7.18Q71.48-14.20 36.41-50.10L36.41-50.10L36.41-50.10Q35.74-50.77 31.56-50.77L31.56-50.77L31.56-50.77Q30.56-50.77 30.56-49.43L30.56-49.43L30.56-22.71L30.90-16.37L30.90-16.37Q31.23-10.19 31.90-7.52L31.90-7.52L31.90-7.52Q32.23-6.35 36.32-5.09L36.32-5.09L36.32-5.09Q40.41-3.84 41.92-3.84L41.92-3.84L41.92-3.84Q42.42-3.84 42.50-2.09L42.50-2.09L42.50-2.09Q42.59-0.33 42.25 0.50L42.25 0.50L42.25 0.50Q26.05-0.33 24.72-0.33L24.72-0.33L24.72-0.33Q23.38-0.33 4.68 0.50L4.68 0.50L4.68 0.50Q4.01-0.17 4.01-2.00L4.01-2.00L4.01-2.00Q4.01-3.84 4.68-3.84L4.68-3.84L4.68-3.84Q6.68-3.84 10.69-5.01L10.69-5.01L10.69-5.01Q14.70-6.18 15.20-7.52L15.20-7.52L15.20-7.52Q16.03-10.35 16.20-16.70L16.20-16.70L16.37-23.21L16.37-84.17L16.20-90.51L16.20-90.51Q16.03-97.03 15.20-99.87L15.20-99.87L15.20-99.87Q14.70-101.20 10.69-102.37L10.69-102.37L10.69-102.37Q6.68-103.54 4.68-103.54L4.68-103.54L4.68-103.54Q4.01-103.54 4.01-105.38L4.01-105.38L4.01-105.38Q4.01-107.21 4.68-107.88L4.68-107.88L4.68-107.88Q23.55-107.05 24.80-107.05L24.80-107.05L24.80-107.05Q26.05-107.05 42.25-107.88L42.25-107.88L42.25-107.88Q42.59-107.21 42.50-105.38L42.50-105.38L42.50-105.38Q42.42-103.54 41.92-103.54L41.92-103.54L41.92-103.54Q40.41-103.54 36.32-102.29L36.32-102.29L36.32-102.29Q32.23-101.04 31.90-99.87L31.90-99.87L31.90-99.87Q31.23-97.19 30.90-90.85L30.90-90.85L30.56-84.67L30.56-58.12L31.56-57.11L31.56-57.11Q38.08-57.11 42.25-61.79L42.25-61.79L56.78-77.82L56.78-77.82Q62.63-84.67 68.55-92.60L68.55-92.60L68.55-92.60Q74.48-100.53 73.98-101.54L73.98-101.54L73.98-101.54Q72.81-104.21 64.96-104.21L64.96-104.21L64.96-104.21Q64.30-104.21 64.30-105.46L64.30-105.46L64.30-105.46Q64.30-106.71 64.63-107.88L64.63-107.88L64.63-107.88Q79.66-107.05 82.08-107.05L82.08-107.05L82.08-107.05Q84.50-107.05 100.70-107.88L100.70-107.88L100.70-107.88Q101.04-107.21 100.95-105.71L100.95-105.71L100.95-105.71Q100.87-104.21 100.37-104.21L100.37-104.21L100.37-104.21Q88.18-102.87 83.17-97.03L83.17-97.03L50.43-58.95L50.43-58.95Q49.10-57.45 51.60-54.44L51.60-54.44L90.85-11.19L90.85-11.19Q94.52-7.18 99.95-5.51L99.95-5.51L99.95-5.51Q105.38-3.84 108.05-3.84L108.05-3.84L108.05-3.84Q108.55-3.84 108.72-2.09L108.72-2.09L108.72-2.09Q108.88-0.33 108.55 0.50Z" transform="translate(0 153.306)" stroke="rgb(100, 176, 212)" stroke-width="2" stroke-linecap="round" stroke-linejoin="round"></path></g><g transform="translate(0 0)" data-width="34.235"><path fill="rgb(100, 176, 212)" d="" transform="translate(0 320.30600000000004)" stroke="rgb(100, 176, 212)" stroke-width="2" stroke-linecap="round" stroke-linejoin="round"></path></g></svg></g> <!----></g><g id="shape_qF3WoRwG5D" transform="translate(113.35084936278105,18.501598000829667) rotate(0,140.5,140.5) scale(0.6167199333609888,0.6167199333609888)" filter="" style="cursor: move; opacity: 1;"><g><rect fill="rgba(0,0,0,0)" width="301" height="301" x="-10" y="-10"></rect><svg version="1.1" id="图层_1" xmlns="http://www.w3.org/2000/svg" xmlns:xlink="http://www.w3.org/1999/xlink" x="0px" y="0px" width="281" height="281" viewBox="0 0 1417.32 1417.32" style="enable-background:new 0 0 1417.32 1417.32;" xml:space="preserve" preserveAspectRatio="none" data-parent="shape_qF3WoRwG5D">
<g>
	<g>
		<path style="" d="M1279.001,1237.438c-24.184-27.138-9.115-58.942-10.54-88.783
			c2.464-25.307-15.582-53.483,10.54-75.488c0-16.849,0-33.697,0-50.546c-15.942-3.063-12.822-13.906-10.033-24.606
			c1.768-13.267-10.546-30.201,10.033-38.574c0-12.634,0-25.273,0-37.907c-33.857-46.331-17.088-92.662,0-138.998
			c0-21.058,0-42.122,0-63.179c-27.463-44.586-7.301-92.628-10.084-139.004c-0.565-34.085-12.879-69.339,10.084-101.08
			c0-42.122,0-84.243,0-126.359c-25.341-27.281-8.213-59.118-9.554-88.977c20.989-18.172-51.19-50.546,9.554-62.655
			c0-16.849,0-33.697,0-50.546c-54.47-7.957-111.353,15.468-164.271-12.634c-25.273,0-50.546,0-75.819,0
			c-12.634,19.923-25.273,19.923-37.906,0c-12.634,0-25.273,0-37.906,0c-29.482,20.008-58.97,20.813-88.452,0
			c-33.697,0-67.394,0-101.086,0c-29.482,25.917-58.97,26.727-88.452,0c-16.849,0-33.697,0-50.546,0
			c-33.697,21.571-67.394,19.649-101.086,0c-12.634,0-25.273,0-37.907,0c-33.697,20.396-67.395,17.602-101.086,0
			c-25.273,0-50.546,0-75.819,0c-12.634,26.459-25.273,14.31-37.907,0c-16.849,0-33.697,0-50.546,0
			c-13.968,26.351-57.636-0.998-65.564,36.264c-3.479,0.251-6.958,0.502-10.438,0.747c-4.152,0.297-8.305,0.599-12.457,0.895
			c0,21.058,0,42.122,0,63.179c1.985,0.593,3.998,0.953,6.029,1.129c1.586,0.137,3.188,0.177,4.802,0.063l0,0
			c-5.219,16.563,18.349,32.345,1.34,49.228c-8.875,24.543,15.303,54.373-12.166,75.939c0,33.697,0,67.395,0,101.086
			c0,33.697,0,67.394,0,101.086c0,16.849,0,33.697,0,50.546c52.086,22.906-5.504,59.518,10.86,86.884
			c-1.951-0.148-3.867-0.068-5.755,0.222c-1.728,0.268-3.434,0.707-5.105,1.346c0,37.907,0,75.819,0,113.725
			c0,50.546,0,101.086,0,151.632c18.474,21.058,22.033,42.122,0,63.18c0,8.424,0,16.849,0,25.273c0,29.482,0,58.97,0,88.452
			c0,16.849,2.772,34.256-0.485,50.449c-13.096,65.05,11.487,90.186,76.304,75.916c29.482-49.593,58.97-34.216,88.452,0
			c105.301,0,210.602,0,315.903,0c21.058-32.294,42.122-38.511,63.18,0c46.331,0,92.662,0,138.998,0
			c21.058-34.832,42.122-37.393,63.179,0c101.086,0,202.178,0,303.264,0c-5.892-11.596-11.789-23.197-17.681-34.792
			c5.652-0.901,11.47-3.131,16.94-2.475c28.592,3.439,9.263,24.651,13.381,37.268
			C1226.995,1259.779,1285.093,1312.795,1279.001,1237.438z M1152.705,190.679c20.83,0.205,41.665,0.411,62.495,0.616l0,0
			c25.387,29.939,8.094,65.609,13.204,98.274c-24.064-20.721-8.19-48.692-13.227-72.87l0,0
			c-16.358-21.731-41.386-12.639-62.467-17.562c-7.86,1.945-15.719,3.884-23.573,5.829c-0.57,0.143-1.135,0.279-1.705,0.422
			c-0.251-0.131-0.502-0.24-0.753-0.359c-0.605-0.297-1.209-0.582-1.819-0.838c-22.912-9.611-51.949,8.972-71.746-14.949
			C1086.309,189.715,1119.51,190.2,1152.705,190.679z M1224.44,579.309c-4.991,8.921-9.981,17.835-14.972,26.756
			c-2.698,4.825-5.401,9.656-8.099,14.482c-3.103,0.268-6.194,0.599-9.28,0.998c2.344,44.654-14.088,90.591,9.137,133.819l0,0
			c4.221-3.479,8.447-6.953,12.668-10.432c4.654-3.833,9.314-7.671,13.968-11.504c0.137,79.389,0.274,158.779,0.416,238.168
			c-8.384,0.103-11.447-8.139-15.149-15.377c-4.004-7.825-8.749-14.482-21.771-8.168l0,0c-0.331,48.088-0.582,96.175-1.038,144.263
			c-0.166,17.248-1.728,35.277,25.102,28.764c-3.359,26.682,6.086,57.847-26.049,74.461l0,0l0,0
			c-26.26,19.963-56.033,21.417-87.015,16.518c20.271-28.028,0.565-28.228-19.541-27.965c-48.772,0.633-97.664,3.091-145.489-10.016
			l0,0c0.12,7.261,0.245,14.522,0.365,21.788c0.091,5.453,0.182,10.911,0.274,16.364c-21.035-0.65-42.065-1.3-63.1-1.956
			c-29.419,9.479-59.067,5.698-88.721,1.54c-13.164,0.234-26.328,0.462-39.492,0.696c3.958-6.765,7.917-13.523,11.875-20.288
			c0.468-0.798,0.935-1.597,1.403-2.401c-34.091-0.839-69.265-14.071-101.833,2.584c-3.896,1.996-7.757,4.386-11.573,7.312
			c-24.708,40.177-57.373,14.276-87.374,10.517l0,0c-27.172,22.649-59.883,12.417-90.397,15.217
			c4.363-9.536,9.565-15.656,15.32-19.506c21.811-14.579,51.732,3.89,75.488-2.789c2.013-3.029,6.057-6.502,5.515-8.972
			c-0.097-0.445-0.297-0.918-0.542-1.403c-1.426-2.812-5.048-6-7.477-6c-104.668,0.051-209.336,0.422-313.998,1.409
			c-6.006,0.057-12.018,0.091-18.024,0.154c-2.772,0.028-5.453,8.829-8.173,13.535c15.754,1.682,31.513,3.359,47.266,5.042
			c14.111,1.506,28.216,3.012,42.327,4.517c-0.399,2.379-0.65,4.774-0.827,7.175c-0.108,1.437-0.217,2.875-0.245,4.318
			c-29.323-0.314-58.645-0.627-87.968-0.941c-35.043,7.067-24.349-20.066-24.64-35.465c-1.146-60.892-0.502-121.819-0.508-182.734
			c-0.006-142.694,12.445-286.826-3.782-427.655c-14.054-121.984,3.816-240.221,3.941-360.118
			c0.029-26.853,0.975-26.853,25.883-28.94c105.62-6.725,212.747,22.535,317.934-12.867c5.11-1.717,29.836,14.812,47.837,16.763
			c29.414-0.074,58.828-0.154,88.247-0.228c71.763-0.068,143.533-0.143,215.296-0.211c49.776-17.088,99.797-4.917,149.75-1.283
			c-48.458,24.999-99.774,7.227-149.721,9.999c-5.915,0.365-11.829,0.736-17.744,1.101c-6.468,0.399-12.936,0.799-19.404,1.203l0,0
			c0.981,5.983,1.757,17.162,2.972,17.214c91.435,3.616,183.264,22.284,274.055-5.356c65.752,7.763,67.001,52.679,63.659,104.349
			c-2.915,45.042,0.913,90.523,1.762,135.81c-0.428,28.786-0.855,57.573-1.283,86.359c8.116-2.812,13.82-6.325,17.818-10.341
			c19.866-19.94-3.342-52.439,7.112-75.123l0,0c3.342,0.12,6.685,0.257,10.021,0.422
			C1247.557,496.737,1229.476,537.912,1224.44,579.309z" fill="#006986"></path>
		<path style="" d="M223.573,200.506c-2.059-0.114-4.118-0.228-6.177-0.337c-3.605,4.854-10.346,9.685-10.369,14.556
			c-1.004,187.149-1.352,374.297-1.945,561.451c-0.029,8.196,2.162,13.033,5.852,15.691c4.455,3.217,11.111,3.245,18.782,2.065
			c0.183-172.422-0.171-344.843,1.329-517.254c0.154-17.978-17.436-50.438,24.634-50.05c1.135-4.261,2.276-8.516,3.411-12.776
			c0.434-1.62,0.867-3.24,1.3-4.865c0.565-2.122,1.135-4.244,1.7-6.365l0,0C249.25,201.915,236.411,201.214,223.573,200.506z" fill="#006986"></path>
		<path style="" d="M211.173,858.053c-11.094,23.368-11.008,55.782,0.08,78.762
			c4.46,9.246,10.683,16.968,18.697,21.942c-0.382-40.838-0.764-81.671-1.141-122.509l0,0
			C221.285,841.495,215.416,849.115,211.173,858.053z" fill="#006986"></path>
		<path style="" d="M753.369,200.888c-27.035-0.108-54.065-1.3-81.095-2.036c-0.667,0.171-1.266,0.371-1.876,0.565
			c-3.839,1.221-6.542,2.886-8.322,4.917c-4.62,5.276-3.177,12.936-0.257,21.172c36.298-0.234,72.591-0.468,108.889-0.702
			c1.837-8.692,1.557-15.582-2.869-19.695C764.964,202.423,760.35,200.917,753.369,200.888z" fill="#006986"></path>
		<path style="" d="M1190.743,832.871C1190.748,832.871,1190.748,832.871,1190.743,832.871
			c8.031-3,14.31-6.382,18.833-10.135c9.89-8.219,11.208-18.286,3.16-30.372c-2.578-3.873-6.08-7.945-10.609-12.24
			C1180.505,793.858,1193.475,815.059,1190.743,832.871z" fill="#006986"></path>
		<path style="" d="M211.076,1100.151c-6.81,4.649-7.272,15.217-7.381,27.013c-0.108,11.807,2.869,18.874,9.28,21.657
			c4.209,1.825,9.884,1.825,17.197,0.046c-0.04-16.672-0.08-33.344-0.114-50.015C220.892,1096.757,214.96,1097.499,211.076,1100.151
			z" fill="#006986"></path>
		<path style="" d="M590.489,202.525c-2.002,0.029-3.998,0.057-6,0.086c0.006,0.177-0.017,0.342-0.017,0.519
			c0.006,3.861-0.724,7.586-2.219,11.156c22.375,18.885,40.582,20.887,50.078-12.371l0,0c-3.536,0.051-7.073,0.103-10.609,0.154
			C611.308,202.223,600.898,202.371,590.489,202.525z" fill="#006986"></path>
		<path style="" d="M565.581,203.592c-8.436-6.998-16.991-4.169-25.598,3.719c-2.105,1.928-4.215,4.118-6.325,6.576
			c0.662,1.015,1.198,2.065,1.677,3.137c1.089,2.441,1.74,5.025,1.888,7.774c13.449,0.491,29.066,8.698,36.983-10.432
			C571.342,209.467,568.467,205.988,565.581,203.592z" fill="#006986"></path>
		<path style="" d="M878.119,1192.852c-27.851-9.234-55.605-15.434-82.327-0.525c-2.966,1.654-5.92,3.491-8.864,5.692
			c11.533,0.525,23.06,1.044,34.593,1.568c12.862,0.582,25.718,1.164,38.58,1.745c4.939,0.222,9.879,0.445,14.818,0.673
			c1.54-1.329,3.388-2.435,4.512-4.055c0.816-1.169,1.107-4.301,0.896-4.369C879.591,1193.331,878.855,1193.098,878.119,1192.852z" fill="#006986"></path>
		<path style="" d="M207.317,1040.559c-0.793,1.534-1.295,3.474-1.449,5.892l0,0c0.006,0,0.878,0.16,1.939,0.354
			c1.66,0.302,3.782,0.69,3.782,0.69s5.59-1.586,5.595-1.574c0-0.006,0-0.006,0-0.011l0.274,0.057l5.601,1.118l5.943-0.787
			c-4.004-4.489-8.008-8.983-12.012-13.472l0,0l0,0l1.124,4.671c-0.331-0.097-0.61-0.125-0.924-0.2
			C212.222,1036.093,209.011,1037.285,207.317,1040.559z" fill="#006986"></path>
	</g>
</g>
</svg></g> <!----></g>  </svg>