<?xml version="1.0" standalone="no"?><!DOCTYPE svg PUBLIC "-//W3C//DTD SVG 1.1//EN" "http://www.w3.org/Graphics/SVG/1.1/DTD/svg11.dtd"><svg class="icon" width="200px" height="200.00px" viewBox="0 0 1024 1024" version="1.1" xmlns="http://www.w3.org/2000/svg"><path fill="#333333" d="M668.818093 365.096209c10.210549 0 20.311605 0.747014 30.328749 1.864464-27.252691-126.898155-162.916487-221.182518-317.77853-221.182518-173.128059 0-314.946019 118.010741-314.946019 267.861654 0 86.494956 47.180556 157.527756 126.027321 212.620515l-31.499411 94.745874 110.101607-55.214533c39.396265 7.79964 71.00517 15.817244 110.318548 15.817244 9.884115 0 19.685341-0.48914 29.404704-1.252527-6.15314-21.059642-9.720386-43.112913-9.720386-65.99404C401.053654 476.762451 519.212774 365.096209 668.818093 365.096209zM499.47422 279.70233c23.713075 0 39.421848 15.600303 39.421848 39.300075 0 23.604604-15.709797 39.422871-39.421848 39.422871-23.603581 0-47.290049-15.818267-47.290049-39.422871C452.184171 295.302633 475.87064 279.70233 499.47422 279.70233zM279.054065 358.425276c-23.602557 0-47.427172-15.818267-47.427172-39.422871 0-23.699772 23.823592-39.300075 47.427172-39.300075 23.604604 0 39.314401 15.600303 39.314401 39.300075C318.369489 342.607008 302.659693 358.425276 279.054065 358.425276zM956.269921 610.577133c0-125.920898-126.001739-228.560556-267.521916-228.560556-149.850913 0-267.873933 102.639658-267.873933 228.560556 0 126.138862 118.024044 228.561579 267.873933 228.561579 31.363312 0 62.999846-7.91118 94.502327-15.803941l86.386486 47.303352-23.685445-78.709643C909.16816 744.501308 956.269921 681.608909 956.269921 610.577133zM601.897961 571.167564c-15.683191 0-31.500435-15.598256-31.500435-31.514761 0-15.693424 15.817244-31.499411 31.500435-31.499411 23.820522 0 39.420825 15.803941 39.420825 31.499411C641.319809 555.569308 625.719506 571.167564 601.897961 571.167564zM775.134491 571.167564c-15.572674 0-31.283494-15.598256-31.283494-31.514761 0-15.693424 15.711843-31.499411 31.283494-31.499411 23.605627 0 39.422871 15.803941 39.422871 31.499411C814.558385 555.569308 798.741142 571.167564 775.134491 571.167564z" /></svg>